<?xml version="1.0" encoding="UTF-8"?>
<svg width="170.36mm" height="139.44mm" version="1.1" viewBox="0 0 170.36 139.44" xmlns="http://www.w3.org/2000/svg" xmlns:cc="http://creativecommons.org/ns#" xmlns:dc="http://purl.org/dc/elements/1.1/" xmlns:rdf="http://www.w3.org/1999/02/22-rdf-syntax-ns#">
 <metadata>
  <rdf:RDF>
   <cc:Work rdf:about="">
    <dc:format>image/svg+xml</dc:format>
    <dc:type rdf:resource="http://purl.org/dc/dcmitype/StillImage"/>
    <dc:title/>
   </cc:Work>
  </rdf:RDF>
 </metadata>
 <g transform="translate(-19.933 -78.755)">
  <g fill-opacity="0" stroke="#000" stroke-linecap="square" stroke-width=".84633">
   <rect x="20.63" y="185.64" width="7.369" height="7.0486" style="paint-order:normal"/>
   <rect x="33.352" y="173.77" width="7.369" height="7.0486" style="paint-order:normal"/>
   <rect x="33.352" y="161.23" width="7.369" height="7.0486" style="paint-order:normal"/>
   <rect x="20.63" y="210.72" width="7.369" height="7.0486" style="paint-order:normal"/>
   <rect x="20.63" y="148.03" width="7.369" height="7.0486" style="paint-order:normal"/>
   <rect x="20.63" y="110.41" width="7.369" height="7.0486" style="paint-order:normal"/>
   <rect x="20.63" y="97.875" width="7.369" height="7.0486" style="paint-order:normal"/>
   <rect transform="scale(1,-1)" x="20.63" y="-205.23" width="7.369" height="7.0486" style="paint-order:normal"/>
   <rect x="33.352" y="136.15" width="7.369" height="7.0486" style="paint-order:normal"/>
   <rect x="33.352" y="123.61" width="7.369" height="7.0486" style="paint-order:normal"/>
  </g>
  <g fill="#000000">
   <text x="19.240652" y="86.847191" font-family="sans-serif" font-size="10.583px" stroke-width=".26458" style="line-height:1.25" xml:space="preserve"><tspan x="19.240652" y="86.847191" stroke-width=".26458">Stock met the criteria of a solid:</tspan></text>
   <text x="32.430035" y="104.48428" font-family="Lato" font-size="7.0556px" stroke-width=".26458" style="line-height:1.25" xml:space="preserve"><tspan x="32.430035" y="104.48428" font-family="Lato" font-size="7.0556px" stroke-width=".26458">Business Model</tspan></text>
   <g font-family="sans-serif">
    <g font-size="7.0556px" stroke-width=".26458">
     <text x="32.384155" y="116.57952" style="line-height:1.25" xml:space="preserve"><tspan x="32.384155" y="116.57952" font-size="7.0556px" stroke-width=".26458">Income Statement</tspan></text>
     <text x="45.078785" y="129.80869" style="line-height:1.25" xml:space="preserve"><tspan x="45.078785" y="129.80869" font-size="7.0556px" stroke-width=".26458">Profitability</tspan></text>
     <text x="45.456764" y="142.65247" style="line-height:1.25" xml:space="preserve"><tspan x="45.456764" y="142.65247" font-size="7.0556px" stroke-width=".26458">Leverage</tspan></text>
     <text x="32.227596" y="154.76251" style="line-height:1.25" xml:space="preserve"><tspan x="32.227596" y="154.76251" font-size="7.0556px" stroke-width=".26458">Balance Sheet</tspan></text>
     <text x="43.566875" y="166.85034" style="line-height:1.25" xml:space="preserve"><tspan x="43.566875" y="166.85034" font-size="7.0556px" stroke-width=".26458">Efficiency</tspan></text>
     <text x="43.52103" y="180.01749" style="line-height:1.25" xml:space="preserve"><tspan x="43.52103" y="180.01749" font-size="7.0556px" stroke-width=".26458">Productivity</tspan></text>
     <text x="32.605572" y="191.85881" style="line-height:1.25" xml:space="preserve"><tspan x="32.605572" y="191.85881" font-size="7.0556px" stroke-width=".26458">Management Team</tspan></text>
     <text x="32.781132" y="203.84616" style="line-height:1.25" xml:space="preserve"><tspan x="32.781132" y="203.84616" font-size="7.0556px" stroke-width=".26458">Risk Factors/ Risk Exposure</tspan></text>
     <text x="33.204964" y="216.9836" style="line-height:1.25" xml:space="preserve"><tspan x="33.204964" y="216.9836" font-size="7.0556px" stroke-width=".26458">Valuation</tspan></text>
    </g>
    <text x="85.422623" y="207.8869" font-size="10.583px" stroke-width=".26458" style="line-height:1.25" xml:space="preserve"><tspan x="85.422623" y="207.8869" stroke-width=".26458"/></text>
    <text font-size="10.583px" style="line-height:1.25;shape-inside:url(#rect1022);white-space:pre" xml:space="preserve"/>
   </g>
  </g>
  <g fill="#d92400">
   <g stroke-opacity="0">
    <path d="m20.875 99.649c0.22901 0.42047 0.52192 0.79891 0.75896 1.2149 0.30657 0.50884 0.572 1.0402 0.86333 1.5574 0.18379 0.35053 0.35843 0.70526 0.56032 1.0459 0.08023 0.14077 0.27906 0.58472 0.52516 0.44276 0.60831-0.35089 1.1954-0.73739 1.7931-1.1061 0.39679-0.55125 0.73767-1.1407 1.0787-1.7276 0.70117-1.2704 1.5028-2.4846 2.4556-3.5817 0.25921-0.29842 0.5351-0.58194 0.80265-0.8729 0.80931-0.87615 1.774-1.5762 2.7258-2.2845l-1.5751 0.62687c-0.93967 0.71858-1.893 1.4283-2.6955 2.3052-0.27099 0.29577-0.54956 0.58476-0.81297 0.8873-0.9872 1.1338-1.8369 2.3755-2.5969 3.6708-0.37026 0.59008-0.7294 1.2004-1.1936 1.7224 0.51793-0.29212 1.0263-0.60192 1.5538-0.87638 0.02092-0.0109-0.08973 0.1489-0.11506 0.14685-0.121-0.01-0.2024-0.26411-0.25654-0.33034-0.19952-0.34052-0.3751-0.6944-0.57279-1.036-0.29878-0.51181-0.58827-1.0287-0.87426-1.5478-0.2255-0.41841-0.5315-0.79075-0.7-1.2391 0 0-1.7248 0.98208-1.7248 0.98208z" style="paint-order:normal"/>
    <path d="m20.765 112.14c0.22901 0.42047 0.52192 0.79891 0.75896 1.2148 0.30657 0.50884 0.572 1.0402 0.86333 1.5574 0.18379 0.35053 0.35843 0.70526 0.56032 1.0459 0.08023 0.14077 0.27906 0.58472 0.52516 0.44276 0.60831-0.35089 1.1954-0.73739 1.7931-1.1061 0.39679-0.55125 0.73767-1.1407 1.0787-1.7276 0.70117-1.2704 1.5028-2.4846 2.4556-3.5816 0.25921-0.29842 0.5351-0.58193 0.80265-0.8729 0.80931-0.87616 1.774-1.5762 2.7258-2.2845l-1.5751 0.62687c-0.93967 0.71859-1.893 1.4283-2.6955 2.3052-0.27099 0.29576-0.54956 0.58476-0.81297 0.88729-0.9872 1.1338-1.8369 2.3756-2.5969 3.6708-0.37026 0.59008-0.7294 1.2004-1.1936 1.7224 0.51793-0.29212 1.0263-0.60192 1.5538-0.87638 0.02092-0.0109-0.08973 0.1489-0.11506 0.14685-0.121-0.01-0.2024-0.26411-0.25654-0.33034-0.19952-0.34052-0.3751-0.6944-0.57279-1.036-0.29878-0.51181-0.58827-1.0287-0.87426-1.5478-0.2255-0.41841-0.5315-0.79075-0.7-1.2391 0 0-1.7248 0.98208-1.7248 0.98208z" style="paint-order:normal"/>
    <path d="m33.805 125.74c0.22901 0.42047 0.52192 0.79891 0.75896 1.2148 0.30657 0.50884 0.572 1.0402 0.86333 1.5574 0.18379 0.35053 0.35843 0.70526 0.56032 1.0459 0.08023 0.14077 0.27906 0.58472 0.52516 0.44276 0.60831-0.35089 1.1954-0.73739 1.7931-1.1061 0.39679-0.55125 0.73767-1.1407 1.0787-1.7276 0.70117-1.2704 1.5028-2.4846 2.4556-3.5816 0.25921-0.29842 0.5351-0.58193 0.80265-0.8729 0.80931-0.87616 1.774-1.5762 2.7258-2.2845l-1.5751 0.62687c-0.93967 0.71859-1.893 1.4283-2.6955 2.3052-0.27099 0.29576-0.54956 0.58476-0.81297 0.88729-0.9872 1.1338-1.8369 2.3756-2.5969 3.6708-0.37026 0.59008-0.7294 1.2004-1.1936 1.7224 0.51793-0.29212 1.0263-0.60192 1.5538-0.87638 0.02092-0.0109-0.08973 0.1489-0.11506 0.14685-0.121-0.01-0.2024-0.26411-0.25654-0.33034-0.19952-0.34052-0.3751-0.6944-0.57279-1.036-0.29878-0.51181-0.58827-1.0287-0.87426-1.5478-0.2255-0.41841-0.5315-0.79075-0.7-1.2391 0 0-1.7248 0.98208-1.7248 0.98208z" style="paint-order:normal"/>
    <path d="m33.616 138.41c0.22901 0.42048 0.52192 0.79892 0.75896 1.2149 0.30657 0.50884 0.572 1.0402 0.86333 1.5574 0.18379 0.35053 0.35843 0.70526 0.56032 1.0459 0.08023 0.14077 0.27906 0.58472 0.52516 0.44276 0.60831-0.35089 1.1954-0.73739 1.7931-1.1061 0.39679-0.55125 0.73767-1.1407 1.0787-1.7276 0.70117-1.2704 1.5028-2.4846 2.4556-3.5817 0.25921-0.29842 0.5351-0.58193 0.80265-0.8729 0.80931-0.87615 1.774-1.5762 2.7258-2.2845l-1.5751 0.62688c-0.93967 0.71858-1.893 1.4283-2.6955 2.3052-0.27099 0.29577-0.54956 0.58476-0.81297 0.8873-0.9872 1.1338-1.8369 2.3756-2.5969 3.6708-0.37026 0.59008-0.7294 1.2004-1.1936 1.7224 0.51793-0.29212 1.0263-0.60192 1.5538-0.87638 0.02092-0.0109-0.08973 0.1489-0.11506 0.14685-0.121-0.01-0.2024-0.26411-0.25654-0.33034-0.19952-0.34052-0.3751-0.6944-0.57279-1.036-0.29878-0.51181-0.58827-1.0287-0.87426-1.5478-0.2255-0.41841-0.5315-0.79074-0.7-1.2391 0 0-1.7248 0.98208-1.7248 0.98208z" style="paint-order:normal"/>
    <path d="m21.331 150.12c0.22901 0.42048 0.52192 0.79892 0.75896 1.2149 0.30657 0.50884 0.572 1.0402 0.86333 1.5574 0.18379 0.35053 0.35843 0.70526 0.56032 1.0459 0.08023 0.14077 0.27906 0.58472 0.52516 0.44276 0.60831-0.35089 1.1954-0.73739 1.7931-1.1061 0.39679-0.55125 0.73767-1.1407 1.0787-1.7276 0.70117-1.2704 1.5028-2.4846 2.4556-3.5816 0.25921-0.29843 0.5351-0.58194 0.80265-0.87291 0.80931-0.87615 1.774-1.5762 2.7258-2.2845l-1.5751 0.62688c-0.93967 0.71858-1.893 1.4283-2.6955 2.3052-0.27099 0.29577-0.54956 0.58476-0.81297 0.8873-0.9872 1.1338-1.8369 2.3756-2.5969 3.6708-0.37026 0.59008-0.7294 1.2004-1.1936 1.7224 0.51793-0.29212 1.0263-0.60192 1.5538-0.87638 0.02092-0.0109-0.08973 0.1489-0.11506 0.14685-0.121-0.01-0.2024-0.26411-0.25654-0.33034-0.19952-0.34052-0.3751-0.6944-0.57279-1.036-0.29878-0.51181-0.58827-1.0287-0.87426-1.5478-0.2255-0.41842-0.5315-0.79075-0.7-1.2391l-1.7248 0.98207z" style="paint-order:normal"/>
    <path d="m33.616 175.45c0.22901 0.42047 0.52192 0.79891 0.75896 1.2148 0.30657 0.50884 0.572 1.0402 0.86333 1.5574 0.18379 0.35053 0.35843 0.70526 0.56032 1.0459 0.08023 0.14077 0.27906 0.58472 0.52516 0.44276 0.60831-0.35089 1.1954-0.73739 1.7931-1.1061 0.39679-0.55125 0.73767-1.1407 1.0787-1.7276 0.70117-1.2704 1.5028-2.4846 2.4556-3.5816 0.25921-0.29842 0.5351-0.58193 0.80265-0.8729 0.80931-0.87615 1.774-1.5762 2.7258-2.2845l-1.5751 0.62687c-0.93967 0.71859-1.893 1.4283-2.6955 2.3052-0.27099 0.29576-0.54956 0.58476-0.81297 0.8873-0.9872 1.1338-1.8369 2.3755-2.5969 3.6708-0.37026 0.59008-0.7294 1.2004-1.1936 1.7224 0.51793-0.29212 1.0263-0.60192 1.5538-0.87638 0.02092-0.0109-0.08973 0.1489-0.11506 0.14685-0.121-0.01-0.2024-0.26411-0.25654-0.33034-0.19952-0.34052-0.3751-0.6944-0.57279-1.036-0.29878-0.51181-0.58827-1.0287-0.87426-1.5478-0.2255-0.41841-0.5315-0.79074-0.7-1.2391 0 0-1.7248 0.98208-1.7248 0.98208z" style="paint-order:normal"/>
    <path d="m21.142 187.35c0.22901 0.42048 0.52192 0.79892 0.75896 1.2149 0.30657 0.50884 0.572 1.0402 0.86333 1.5574 0.18379 0.35053 0.35843 0.70526 0.56032 1.0459 0.08023 0.14077 0.27906 0.58472 0.52516 0.44276 0.60831-0.35089 1.1954-0.73739 1.7931-1.1061 0.39679-0.55125 0.73767-1.1407 1.0787-1.7276 0.70117-1.2704 1.5028-2.4846 2.4556-3.5817 0.25921-0.29842 0.5351-0.58193 0.80265-0.8729 0.80931-0.87615 1.774-1.5762 2.7258-2.2845l-1.5751 0.62688c-0.93967 0.71858-1.893 1.4283-2.6955 2.3052-0.27099 0.29577-0.54956 0.58476-0.81297 0.8873-0.9872 1.1338-1.8369 2.3756-2.5969 3.6708-0.37026 0.59008-0.7294 1.2004-1.1936 1.7224 0.51793-0.29212 1.0263-0.60192 1.5538-0.87638 0.02092-0.0109-0.08973 0.1489-0.11506 0.14685-0.121-0.01-0.2024-0.26411-0.25654-0.33034-0.19952-0.34052-0.3751-0.6944-0.57279-1.036-0.29878-0.51181-0.58827-1.0287-0.87426-1.5478-0.2255-0.41841-0.5315-0.79074-0.7-1.2391 0 0-1.7248 0.98208-1.7248 0.98208z" style="paint-order:normal"/>
    <path d="m21.142 199.83c0.22901 0.42047 0.52192 0.79891 0.75896 1.2148 0.30657 0.50884 0.572 1.0402 0.86333 1.5574 0.18379 0.35053 0.35843 0.70526 0.56032 1.0459 0.08023 0.14077 0.27906 0.58472 0.52516 0.44276 0.60831-0.35089 1.1954-0.73739 1.7931-1.1061 0.39679-0.55125 0.73767-1.1407 1.0787-1.7276 0.70117-1.2704 1.5028-2.4846 2.4556-3.5816 0.25921-0.29842 0.5351-0.58194 0.80265-0.8729 0.80931-0.87616 1.774-1.5762 2.7258-2.2845l-1.5751 0.62687c-0.93967 0.71859-1.893 1.4283-2.6955 2.3052-0.27099 0.29576-0.54956 0.58476-0.81297 0.88729-0.9872 1.1338-1.8369 2.3756-2.5969 3.6708-0.37026 0.59008-0.7294 1.2004-1.1936 1.7224 0.51793-0.29212 1.0263-0.60192 1.5538-0.87638 0.02092-0.0109-0.08973 0.1489-0.11506 0.14685-0.121-0.01-0.2024-0.26411-0.25654-0.33034-0.19952-0.34052-0.3751-0.6944-0.57279-1.036-0.29878-0.51181-0.58827-1.0287-0.87426-1.5478-0.2255-0.41841-0.5315-0.79075-0.7-1.2391 0 0-1.7248 0.98208-1.7248 0.98208z" style="paint-order:normal"/>
   </g>
  </g>
 </g>
</svg>
