<?xml version="1.0" encoding="UTF-8" standalone="no"?>
<svg
   xmlns:dc="http://purl.org/dc/elements/1.1/"
   xmlns:cc="http://creativecommons.org/ns#"
   xmlns:rdf="http://www.w3.org/1999/02/22-rdf-syntax-ns#"
   xmlns:svg="http://www.w3.org/2000/svg"
   xmlns="http://www.w3.org/2000/svg"
   xmlns:sodipodi="http://sodipodi.sourceforge.net/DTD/sodipodi-0.dtd"
   xmlns:inkscape="http://www.inkscape.org/namespaces/inkscape"
   inkscape:version="1.0 (4035a4fb49, 2020-05-01)"
   height="448.14999"
   width="448.25"
   sodipodi:docname="ig-icon.svg"
   id="svg871"
   version="1.1"
   viewBox="0 0 448.25 448.14999"
   role="img"
   class="svg-inline--fa fa-instagram fa-w-14"
   data-icon="instagram"
   data-prefix="fab"
   focusable="false"
   aria-hidden="true">
  <metadata
     id="metadata877">
    <rdf:RDF>
      <cc:Work
         rdf:about="">
        <dc:format>image/svg+xml</dc:format>
        <dc:type
           rdf:resource="http://purl.org/dc/dcmitype/StillImage" />
        <dc:title></dc:title>
      </cc:Work>
    </rdf:RDF>
  </metadata>
  <defs
     id="defs875" />
  <sodipodi:namedview
     inkscape:current-layer="svg871"
     inkscape:window-maximized="1"
     inkscape:window-y="-8"
     inkscape:window-x="-8"
     inkscape:cy="296.2049"
     inkscape:cx="189.90892"
     inkscape:zoom="1.1739077"
     inkscape:pagecheckerboard="true"
     fit-margin-bottom="0"
     fit-margin-right="0"
     fit-margin-left="0"
     fit-margin-top="0"
     showgrid="false"
     id="namedview873"
     inkscape:window-height="1017"
     inkscape:window-width="1920"
     inkscape:pageshadow="2"
     inkscape:pageopacity="0"
     guidetolerance="10"
     gridtolerance="10"
     objecttolerance="10"
     borderopacity="1"
     bordercolor="#666666"
     pagecolor="#ffffff" />
  <path
     style="fill:#ffffff;fill-opacity:1"
     id="path869"
     d="m 224.175,109.175 c -63.6,0 -114.9,51.3 -114.9,114.9 0,63.6 51.3,114.9 114.9,114.9 63.6,0 114.9,-51.3 114.9,-114.9 0,-63.6 -51.3,-114.9 -114.9,-114.9 z m 0,189.6 c -41.1,0 -74.7,-33.5 -74.7,-74.7 0,-41.2 33.5,-74.7 74.7,-74.7 41.2,0 74.7,33.5 74.7,74.7 0,41.2 -33.6,74.7 -74.7,74.7 z m 146.4,-194.3 c 0,14.9 -12,26.8 -26.8,26.8 -14.9,0 -26.8,-12 -26.8,-26.8 0,-14.8 12,-26.8 26.8,-26.8 14.8,0 26.8,12 26.8,26.8 z m 76.1,27.2 c -1.7,-35.9 -9.9,-67.7 -36.2,-93.9 -26.2,-26.2 -58,-34.4 -93.9,-36.2 -37,-2.1 -147.9,-2.1 -184.9,0 -35.8,1.7 -67.6,9.9 -93.9,36.1 -26.3,26.2 -34.4,58 -36.2,93.9 -2.1,37 -2.1,147.9 0,184.9 1.7,35.9 9.9,67.7 36.2,93.9 26.3,26.2 58,34.4 93.9,36.2 37,2.1 147.9,2.1 184.9,0 35.9,-1.7 67.7,-9.9 93.9,-36.2 26.2,-26.2 34.4,-58 36.2,-93.9 2.1,-37 2.1,-147.8 0,-184.8 z m -47.8,224.5 c -7.8,19.6 -22.9,34.7 -42.6,42.6 -29.5,11.7 -99.5,9 -132.1,9 -32.6,0 -102.7,2.6 -132.1,-9 -19.6,-7.8 -34.7,-22.9 -42.6,-42.6 -11.7,-29.5 -9,-99.5 -9,-132.1 0,-32.6 -2.6,-102.7 9,-132.1 7.8,-19.6 22.9,-34.7 42.6,-42.6 29.5,-11.7 99.5,-9 132.1,-9 32.6,0 102.7,-2.6 132.1,9 19.6,7.8 34.7,22.9 42.6,42.6 11.7,29.5 9,99.5 9,132.1 0,32.6 2.7,102.7 -9,132.1 z"
     fill="currentColor" />
</svg>
