<svg xmlns="http://www.w3.org/2000/svg" viewBox="0 0 234.8 146.19"><defs><style>.cls-1{fill:#ed1c24;}.cls-2,.cls-5{fill:#fff;}.cls-3{fill:#00a651;stroke:#fff;}.cls-11,.cls-3,.cls-4,.cls-5{stroke-miterlimit:10;}.cls-4,.cls-6{fill:#231f20;}.cls-11,.cls-4,.cls-5{stroke:#231f20;}.cls-6{font-size:21.92px;font-family:GeosansLight;}.cls-7{letter-spacing:-0.05em;}.cls-8{letter-spacing:-0.03em;}.cls-9{letter-spacing:-0.05em;}.cls-10{letter-spacing:-0.14em;}.cls-11{fill:none;}</style></defs><title>marketpal-logo-text</title><g id="Layer_2" data-name="Layer 2"><g id="Layer_1-2" data-name="Layer 1"><g id="Bull_Bear_Hand" data-name="Bull/Bear Hand"><rect class="cls-1" x="67.11" y="82.88" width="68.04" height="43.93" rx="14.44" transform="translate(20.85 -16.71) rotate(10.52)"/><path class="cls-1" d="M142,134.77l-33.5-6.22c-2.78-.52-4.71-2.62-4.33-4.69l6.63-35.69c.39-2.07,2.95-3.33,5.72-2.81l48.07,8.93c2.77.51,4.71,2.61,4.33,4.68l-10,16.81a7.89,7.89,0,0,1-1.27,1.76l-2,2.12-.34,2.51a6.35,6.35,0,0,1-.65,2c-.18.34-.38.73-.55,1.07a4.48,4.48,0,0,1-1.1,1.39l-4.07,3.44a4.5,4.5,0,0,1-1.29,1.94C146.21,133.46,144.68,135.27,142,134.77Z"/><path class="cls-2" d="M148.87,130.1c-7.5-2.18-21.07-5.9-26.48-7.47-.82-.24-2.25-2.8-2.22-2.71.63,1.87,21.41,6.78,30.29,8.8Z"/><path class="cls-2" d="M155.58,119.66l-31.32-8.27c-.94-.24-2.54-3-2.51-2.9.71,2.05,25.69,7.39,35.53,9.39Z"/><path class="cls-2" d="M164.05,108.93,127.7,99.34c-.93-.25-2.53-3-2.5-2.9.88,2.56,39.1,10,39.1,10Z"/><ellipse class="cls-3" cx="78.05" cy="121.09" rx="8.22" ry="5.33" transform="translate(-55.26 175.71) rotate(-79.48)"/><ellipse class="cls-3" cx="90.29" cy="123.36" rx="10.56" ry="4.89" transform="translate(-47.49 189.6) rotate(-79.48)"/><ellipse class="cls-3" cx="104.16" cy="125.94" rx="13.11" ry="6.56" transform="translate(-38.69 205.34) rotate(-79.48)"/><ellipse class="cls-3" cx="119.27" cy="128.75" rx="10.5" ry="6.7" transform="translate(-29.09 222.5) rotate(-79.48)"/><path class="cls-3" d="M164.42,93.39s-49.92-6-59.85-12a1.56,1.56,0,0,0-1.75.12c-5.14,3.83-12.52,9.39-15.4,11.09a10.1,10.1,0,0,1-2.89,1c-1.1.26-5.28-1.41-6-3.91-.28-1-.66-1.57,1.33-2.45,6.33-2.78,16.1-20.43,21.84-19.34,2.93.56,8.1,2.77,12.48,3.62,4.62.89,8.74,2.18,15.5,3.15,15.43,2.22,27.95-4.05,28.77-.4C160.1,81.45,164.42,93.39,164.42,93.39Z"/></g><g id="Sleeves"><g id="Bull_Sleeve" data-name="Bull Sleeve"><path class="cls-4" d="M234.3,63.83,234.23,61,154.4,72.05l6.2,44.61,73.83-10.26"/><circle class="cls-5" cx="226.05" cy="84.73" r="5.93"/><rect class="cls-5" x="207.12" y="64.23" width="8.89" height="45.04" transform="translate(-9.92 29.94) rotate(-7.91)"/></g><g id="Bear_Sleeve" data-name="Bear Sleeve"><path class="cls-4" d="M.5,104.45l68.92,15.88L79.53,76.44,1,58.35.5,60.51"/><circle class="cls-5" cx="8.65" cy="83.22" r="5.93"/><rect class="cls-5" x="19.5" y="64.23" width="8.89" height="45.04" transform="translate(20.08 -3.16) rotate(12.97)"/></g></g><g id="Text_Logo" data-name="Text Logo"><text class="cls-6" transform="translate(101.13 31.91)"><tspan class="cls-7">T</tspan><tspan x="8.48" y="0">he</tspan></text><text class="cls-6" transform="translate(75.09 53.83)">Mar<tspan class="cls-8" x="37.75" y="0">k</tspan><tspan class="cls-9" x="46.25" y="0">e</tspan><tspan x="55.96" y="0">t</tspan><tspan class="cls-10" x="61.44" y="0">P</tspan><tspan x="69.14" y="0">al</tspan></text></g><polygon class="cls-11" points="234.3 144.92 0.5 145.69 0.5 1.27 234.3 0.5 234.3 144.92"/></g></g></svg>