<?xml version="1.0" encoding="UTF-8"?>
<svg class="svg-inline--fa fa-twitter fa-w-16" aria-hidden="true" data-icon="twitter" data-prefix="fab" focusable="false" role="img" version="1.1" viewBox="0 0 512 512" xmlns="http://www.w3.org/2000/svg" xmlns:cc="http://creativecommons.org/ns#" xmlns:dc="http://purl.org/dc/elements/1.1/" xmlns:rdf="http://www.w3.org/1999/02/22-rdf-syntax-ns#">
 <metadata>
  <rdf:RDF>
   <cc:Work rdf:about="">
    <dc:format>image/svg+xml</dc:format>
    <dc:type rdf:resource="http://purl.org/dc/dcmitype/StillImage"/>
    <dc:title/>
   </cc:Work>
  </rdf:RDF>
 </metadata>
 <path d="m459.37 151.72c0.325 4.548 0.325 9.097 0.325 13.645 0 138.72-105.58 298.56-298.56 298.56-59.452 0-114.68-17.219-161.14-47.106 8.447 0.974 16.568 1.299 25.34 1.299 49.055 0 94.213-16.568 130.27-44.832-46.132-0.975-84.792-31.188-98.112-72.772 6.498 0.974 12.995 1.624 19.818 1.624 9.421 0 18.843-1.3 27.614-3.573-48.081-9.747-84.143-51.98-84.143-102.98v-1.299c13.969 7.797 30.214 12.67 47.431 13.319-28.264-18.843-46.781-51.005-46.781-87.391 0-19.492 5.197-37.36 14.294-52.954 51.655 63.675 129.3 105.26 216.36 109.81-1.624-7.797-2.599-15.918-2.599-24.04 0-57.828 46.782-104.93 104.93-104.93 30.213 0 57.502 12.67 76.67 33.137 23.715-4.548 46.456-13.32 66.599-25.34-7.798 24.366-24.366 44.833-46.132 57.827 21.117-2.273 41.584-8.122 60.426-16.243-14.292 20.791-32.161 39.308-52.628 54.253z" fill="currentColor"/>
 <path d="m148.48 463.43c-43.026-2.0154-83.998-12.734-121.68-31.831-10.256-5.1985-24.684-13.481-24.246-13.919 0.11086-0.11086 5.205 0.0712 11.32 0.40448 18.064 0.98463 38.97-0.68656 56.898-4.5484 28.688-6.1798 57.153-19.128 80.557-36.643l4.9772-3.7248-6.0235-0.45991c-35.627-2.7203-67.278-22.951-84.427-53.966-3.4415-6.224-7.8633-16.736-7.2836-17.316 0.19282-0.19282 3.5589-0.0194 7.4801 0.38536 11.483 1.1853 27.887 0.0556 37.247-2.5652l2.4094-0.67465-2.1082-0.54977c-8.9031-2.3217-18.749-5.9387-25.285-9.2893-31.744-16.271-52.689-46.714-56.594-82.256-0.63863-5.8128-0.84394-11.318-0.4221-11.318 0.12129 0 2.7641 1.1962 5.8729 2.6582 8.0417 3.7819 15.27 6.1852 23.662 7.8679 6.8251 1.3684 18.5 2.6614 17.831 1.9746-0.16565-0.16985-2.1986-1.7332-4.5176-3.4742-6.6001-4.9548-11.812-9.7744-16.637-15.386-28.026-32.591-33.63-77.639-14.413-115.86 2.4476-4.8681 2.5739-5.0058 3.5814-3.9073 0.57438 0.62629 3.3739 3.8493 6.2211 7.1622 6.9745 8.1154 23.88 24.665 32.391 31.71 41.9 34.679 89.26 56.563 141.85 65.548 9.2236 1.5757 27.258 3.6367 31.821 3.6367 3.511 0 3.5121-5.9e-4 3.178-1.6565-1.5987-7.9227-1.8665-11.286-1.8347-23.04 0.0299-11.055 0.23298-13.876 1.3878-19.275 5.9467-27.802 20.979-50.612 43.74-66.368 19.112-13.231 44.092-19.977 66.676-18.007 25.365 2.2126 46.764 11.785 65.239 29.182 1.9803 1.8648 4.0275 3.3906 4.5493 3.3906 2.0246 0 18.448-4.3315 26.038-6.8672 12.063-4.0303 26.656-10.52 35.871-15.954 1.72-1.0141 3.1272-1.7216 3.1272-1.5721 0 0.91222-3.2696 8.6711-5.6533 13.416-8.1947 16.311-19.707 29.425-34.968 39.833-6.3524 4.3326-6.2829 4.3564 6.4287 2.203 14.2-2.4055 29.005-6.4723 41.685-11.45 2.9612-1.1625 5.4938-2.0039 5.6281-1.8696 0.37393 0.37393-5.7712 8.4878-12.427 16.408-9.4892 11.292-25.701 26.64-35.791 33.885l-2.8719 2.0619 0.3778 6.9678c0.47368 8.736-0.61216 29.161-2.2256 41.865-8.0679 63.525-35.579 123.37-78.119 169.93-49.159 53.808-114.25 85.554-188.87 92.114-10.327 0.90786-33.249 1.5372-41.652 1.1436z" fill="#00acee" stroke-dasharray="1.91918, 1.91918000000000011" stroke-linecap="square" stroke-width="1.9192" style="paint-order:markers stroke fill"/>
</svg>
